<svg width="1200" height="1200" xmlns="http://www.w3.org/2000/svg" xmlns:xlink="http://www.w3.org/1999/xlink" version="1.1"><g transform="scale(13.075059566539585) translate(-4.1111105812920465, -4.111111534966364)">                        <g fill="#f2c864"><path xmlns="http://www.w3.org/2000/svg" d="M38.3,69.9c-0.6,0-1.2-0.1-1.8-0.2c4,8.1,14.3,13.9,26.4,13.9c4.4,0,8.8-0.8,12.8-2.3l7.2,5.4c0.3,0.2,0.6,0.3,0.9,0.3  c0.3,0,0.6-0.1,0.9-0.3c0.6-0.4,0.8-1.1,0.6-1.7l-2.1-7.6c5.2-4,8.1-9.4,8.1-15c0-6.1-3.4-11.6-8.9-15.5c-0.2,0.5-0.3,1-0.5,1.5  c-0.2,0.4-0.4,0.9-0.6,1.4c4.3,3.3,6.9,7.7,6.9,12.6c0,5-2.8,9.7-7.8,13.2c-0.6,0.4-0.8,1.2-0.5,1.9l1.2,4.1l-4-3  c-0.4-0.5-1.1-0.7-1.7-0.4c-3.8,1.6-8.1,2.4-12.5,2.4c-10,0-18.7-4.3-22.7-10.5C39.5,70.1,38.9,70,38.3,69.9z"/><path xmlns="http://www.w3.org/2000/svg" d="M18.9,58.5l-3,10.1c-0.2,0.7,0.1,1.3,0.6,1.7c0.3,0.2,0.6,0.3,0.9,0.3s0.6-0.1,0.9-0.3l9.3-7c2.4,0.9,4.9,1.6,7.4,2.1  c0.5,0.1,1.1,0.2,1.6,0.3c0.5,0.1,1.1,0.1,1.6,0.2c1.9,0.3,3.9,0.4,5.8,0.4c15.9,0,29.3-8,33.8-18.8c0.2-0.5,0.3-0.9,0.5-1.4  c0.1-0.5,0.3-1,0.4-1.5c0.4-1.6,0.6-3.2,0.6-4.9C79.3,25,63.5,13,44,13C24.6,13,8.7,25,8.7,39.7C8.7,46.7,12.5,53.5,18.9,58.5z   M11.7,39.7c0-13,14.5-23.6,32.3-23.6s32.3,10.6,32.3,23.6c0,1.3-0.1,2.5-0.4,3.7c-0.1,0.4-0.3,0.9-0.4,1.4  c-0.2,0.5-0.3,0.9-0.5,1.4c-3.9,9.9-16.3,17.1-31,17.1c-2.2,0-4.2-0.2-6.3-0.5c-0.5-0.1-1-0.2-1.5-0.3s-1-0.2-1.5-0.3  c-2.4-0.5-4.7-1.2-6.8-2.1c-0.7-0.3-1.4,0-1.8,0.5l-5.9,4.5l2-6.5c0.3-0.7,0.1-1.5-0.5-1.9C15.3,52.2,11.7,46.1,11.7,39.7z"/></g>        </g></svg>